<mxfile host="app.diagrams.net" modified="2023-08-21T01:41:34.793Z" agent="Mozilla/5.0 (Windows NT 10.0; Win64; x64; rv:109.0) Gecko/20100101 Firefox/116.0" etag="d0p15PtTVU0cBvP6vrR5" version="21.6.8">
  <diagram name="Page-1" id="iiMIAGKT2r6JbYfuk0Az">
    <mxGraphModel dx="1434" dy="792" grid="0" gridSize="10" guides="1" tooltips="1" connect="1" arrows="1" fold="1" page="1" pageScale="1" pageWidth="850" pageHeight="1100" math="0" shadow="0">
      <root>
        <mxCell id="0" />
        <mxCell id="1" parent="0" />
        <mxCell id="NN1888mFaBKiaWciHmkX-22" style="edgeStyle=orthogonalEdgeStyle;rounded=0;orthogonalLoop=1;jettySize=auto;html=1;exitX=0.75;exitY=1;exitDx=0;exitDy=0;entryX=0.5;entryY=0;entryDx=0;entryDy=0;" edge="1" parent="1" source="NN1888mFaBKiaWciHmkX-1" target="NN1888mFaBKiaWciHmkX-19">
          <mxGeometry relative="1" as="geometry" />
        </mxCell>
        <mxCell id="NN1888mFaBKiaWciHmkX-1" value="MCU" style="rounded=1;whiteSpace=wrap;html=1;" vertex="1" parent="1">
          <mxGeometry x="350" y="260" width="150" height="120" as="geometry" />
        </mxCell>
        <mxCell id="NN1888mFaBKiaWciHmkX-2" value="GSM Module" style="rounded=1;whiteSpace=wrap;html=1;" vertex="1" parent="1">
          <mxGeometry x="590" y="260" width="90" height="40" as="geometry" />
        </mxCell>
        <mxCell id="NN1888mFaBKiaWciHmkX-4" value="Accelerometer" style="rounded=1;whiteSpace=wrap;html=1;" vertex="1" parent="1">
          <mxGeometry x="150" y="260" width="110" height="40" as="geometry" />
        </mxCell>
        <mxCell id="NN1888mFaBKiaWciHmkX-8" value="Ultrasonic Sensor" style="rounded=1;whiteSpace=wrap;html=1;" vertex="1" parent="1">
          <mxGeometry x="150" y="320" width="110" height="40" as="geometry" />
        </mxCell>
        <mxCell id="NN1888mFaBKiaWciHmkX-12" value="Temperature and Humidity Sensor" style="rounded=1;whiteSpace=wrap;html=1;" vertex="1" parent="1">
          <mxGeometry x="150" y="380" width="110" height="40" as="geometry" />
        </mxCell>
        <mxCell id="NN1888mFaBKiaWciHmkX-15" value="GPS Module" style="rounded=1;whiteSpace=wrap;html=1;" vertex="1" parent="1">
          <mxGeometry x="590" y="330" width="120" height="40" as="geometry" />
        </mxCell>
        <mxCell id="NN1888mFaBKiaWciHmkX-20" value="" style="edgeStyle=orthogonalEdgeStyle;rounded=0;orthogonalLoop=1;jettySize=auto;html=1;" edge="1" parent="1" source="NN1888mFaBKiaWciHmkX-18" target="NN1888mFaBKiaWciHmkX-1">
          <mxGeometry relative="1" as="geometry">
            <Array as="points">
              <mxPoint x="390" y="410" />
              <mxPoint x="390" y="410" />
            </Array>
          </mxGeometry>
        </mxCell>
        <mxCell id="NN1888mFaBKiaWciHmkX-18" value="Transmit Button" style="rounded=1;whiteSpace=wrap;html=1;" vertex="1" parent="1">
          <mxGeometry x="320" y="440" width="120" height="30" as="geometry" />
        </mxCell>
        <mxCell id="NN1888mFaBKiaWciHmkX-19" value="Calibration LED" style="rounded=1;whiteSpace=wrap;html=1;" vertex="1" parent="1">
          <mxGeometry x="450" y="440" width="120" height="30" as="geometry" />
        </mxCell>
        <mxCell id="NN1888mFaBKiaWciHmkX-30" value="" style="endArrow=classic;startArrow=classic;html=1;rounded=0;entryX=0;entryY=0.5;entryDx=0;entryDy=0;exitX=1;exitY=0.15;exitDx=0;exitDy=0;exitPerimeter=0;" edge="1" parent="1" source="NN1888mFaBKiaWciHmkX-1" target="NN1888mFaBKiaWciHmkX-2">
          <mxGeometry width="50" height="50" relative="1" as="geometry">
            <mxPoint x="500" y="220" as="sourcePoint" />
            <mxPoint x="550" y="170" as="targetPoint" />
          </mxGeometry>
        </mxCell>
        <mxCell id="NN1888mFaBKiaWciHmkX-31" value="" style="endArrow=classic;startArrow=classic;html=1;rounded=0;entryX=0;entryY=0.5;entryDx=0;entryDy=0;exitX=1;exitY=0.75;exitDx=0;exitDy=0;" edge="1" parent="1" source="NN1888mFaBKiaWciHmkX-1" target="NN1888mFaBKiaWciHmkX-15">
          <mxGeometry width="50" height="50" relative="1" as="geometry">
            <mxPoint x="540" y="340" as="sourcePoint" />
            <mxPoint x="570" y="351" as="targetPoint" />
          </mxGeometry>
        </mxCell>
        <mxCell id="NN1888mFaBKiaWciHmkX-32" value="" style="endArrow=classic;startArrow=classic;html=1;rounded=0;exitX=1;exitY=0.5;exitDx=0;exitDy=0;" edge="1" parent="1" source="NN1888mFaBKiaWciHmkX-12">
          <mxGeometry width="50" height="50" relative="1" as="geometry">
            <mxPoint x="260" y="409.5" as="sourcePoint" />
            <mxPoint x="350" y="374" as="targetPoint" />
            <Array as="points">
              <mxPoint x="350" y="400" />
            </Array>
          </mxGeometry>
        </mxCell>
        <mxCell id="NN1888mFaBKiaWciHmkX-34" value="" style="endArrow=classic;startArrow=classic;html=1;rounded=0;exitX=1;exitY=0.5;exitDx=0;exitDy=0;entryX=-0.013;entryY=0.675;entryDx=0;entryDy=0;entryPerimeter=0;" edge="1" parent="1" source="NN1888mFaBKiaWciHmkX-8" target="NN1888mFaBKiaWciHmkX-1">
          <mxGeometry width="50" height="50" relative="1" as="geometry">
            <mxPoint x="240" y="339.5" as="sourcePoint" />
            <mxPoint x="330" y="340" as="targetPoint" />
          </mxGeometry>
        </mxCell>
        <mxCell id="NN1888mFaBKiaWciHmkX-36" value="" style="endArrow=classic;startArrow=classic;html=1;rounded=0;exitX=1;exitY=0.15;exitDx=0;exitDy=0;exitPerimeter=0;" edge="1" parent="1">
          <mxGeometry width="50" height="50" relative="1" as="geometry">
            <mxPoint x="260" y="279" as="sourcePoint" />
            <mxPoint x="350" y="280" as="targetPoint" />
          </mxGeometry>
        </mxCell>
        <mxCell id="NN1888mFaBKiaWciHmkX-37" value="&lt;font style=&quot;font-size: 14px;&quot;&gt;I2C&lt;/font&gt;" style="text;whiteSpace=wrap;html=1;" vertex="1" parent="1">
          <mxGeometry x="280" y="250" width="60" height="30" as="geometry" />
        </mxCell>
        <mxCell id="NN1888mFaBKiaWciHmkX-38" value="GPIO" style="text;whiteSpace=wrap;html=1;" vertex="1" parent="1">
          <mxGeometry x="280" y="305" width="60" height="30" as="geometry" />
        </mxCell>
        <mxCell id="NN1888mFaBKiaWciHmkX-39" value="GPIO" style="text;whiteSpace=wrap;html=1;" vertex="1" parent="1">
          <mxGeometry x="280" y="370" width="60" height="30" as="geometry" />
        </mxCell>
        <mxCell id="NN1888mFaBKiaWciHmkX-40" value="GPIO" style="text;whiteSpace=wrap;html=1;" vertex="1" parent="1">
          <mxGeometry x="330" y="410" width="60" height="30" as="geometry" />
        </mxCell>
        <mxCell id="NN1888mFaBKiaWciHmkX-41" value="GPIO" style="text;whiteSpace=wrap;html=1;" vertex="1" parent="1">
          <mxGeometry x="520" y="400" width="60" height="30" as="geometry" />
        </mxCell>
        <mxCell id="NN1888mFaBKiaWciHmkX-42" value="UART" style="text;whiteSpace=wrap;html=1;" vertex="1" parent="1">
          <mxGeometry x="520" y="310" width="60" height="30" as="geometry" />
        </mxCell>
        <mxCell id="NN1888mFaBKiaWciHmkX-43" value="UART" style="text;whiteSpace=wrap;html=1;" vertex="1" parent="1">
          <mxGeometry x="520" y="240" width="60" height="30" as="geometry" />
        </mxCell>
      </root>
    </mxGraphModel>
  </diagram>
</mxfile>
